<?xml version="1.0" encoding="iso-8859-1"?>
<!-- Generator: Adobe Illustrator 19.0.0, SVG Export Plug-In . SVG Version: 6.00 Build 0)  -->
<svg version="1.1" id="Layer_1" xmlns="http://www.w3.org/2000/svg" xmlns:xlink="http://www.w3.org/1999/xlink" x="0px" y="0px"
	 viewBox="0 0 512 512" style="enable-background:new 0 0 512 512;" xml:space="preserve" fill="#9b60a4">
<g>
	<g>
		<g>
			<path d="M412.703,8.533h-42.667c-4.642,0-8.986,1.826-12.228,5.146c-3.226,3.294-4.941,7.646-5.06,11.921
				c-8.67-0.026-9.89-1.169-15.019-5.973c-2.304-2.159-5.18-4.847-9.25-7.936C318.563,4.147,305.951,0,292.98,0h-43.981
				c-25.771,0-38.144,0.367-61.406,9.071C136.692,28.126,103.873,66.62,74.288,141.943c-1.476,3.763-0.111,8.047,3.268,10.257
				c1.434,0.939,3.055,1.399,4.668,1.399c2.21,0,4.395-0.853,6.042-2.5l7.671-7.74c26.871-27.273,40.363-40.96,88.695-40.96
				c22.852,0,40.081,18.338,40.081,42.667v93.867h85.333v-86.187c6.451-1.408,10.359-4.463,14.925-8.09
				c1.033-0.828,2.167-1.724,3.439-2.697c4.062-3.089,6.938-5.786,9.25-7.945c5.154-4.838,6.383-5.99,15.317-6.409
				c-0.307,4.395,1.229,8.627,4.301,11.93c3.285,3.516,7.927,5.53,12.757,5.53h42.667c14.114,0,25.6-11.486,25.6-25.6V34.133
				C438.303,20.019,426.817,8.533,412.703,8.533z M421.236,119.467c0,4.702-3.831,8.533-8.533,8.533l-42.667-0.111
				c0.06-4.19-1.519-8.201-4.489-11.383c-3.328-3.541-7.987-5.572-12.8-5.572h-0.06c-14.669,0.043-19.703,4.07-26.701,10.624
				c-2.133,1.997-4.548,4.267-7.919,6.827c-1.374,1.05-2.594,2.022-3.712,2.91c-5.461,4.335-6.596,5.24-12.843,5.24h-60.288
				c-3.849-29.312-27.324-51.2-56.593-51.2c-38.426,0-58.897,8.789-76.937,23.407c23.1-45.252,48.99-69.871,85.88-83.678
				c20.318-7.612,30.106-7.996,55.424-7.996h43.981c9.267,0,18.21,2.918,25.173,8.209c3.371,2.56,5.786,4.821,7.919,6.818
				c6.972,6.519,11.981,10.53,26.615,10.573c4.471-0.299,9.276-1.92,12.587-5.299c3.174-3.234,4.864-7.441,4.762-11.767h42.667
				c4.702,0,8.533,3.831,8.533,8.533V119.467z"/>
			<path d="M224.715,418.133h34.133c4.71,0,8.533,3.823,8.533,8.533c0,4.71-3.823,8.533-8.533,8.533h-34.133v17.067h34.133
				c4.71,0,8.533,3.823,8.533,8.533s-3.823,8.533-8.533,8.533h-34.133v8.533c0,18.825,15.309,34.133,34.133,34.133h17.067
				c18.825,0,34.133-15.309,34.133-34.133V256h-85.333V418.133z"/>
		</g>
	</g>
</g>
<g>
</g>
<g>
</g>
<g>
</g>
<g>
</g>
<g>
</g>
<g>
</g>
<g>
</g>
<g>
</g>
<g>
</g>
<g>
</g>
<g>
</g>
<g>
</g>
<g>
</g>
<g>
</g>
<g>
</g>
</svg>
