<?xml version="1.0" encoding="iso-8859-1"?>
<!-- Generator: Adobe Illustrator 18.0.0, SVG Export Plug-In . SVG Version: 6.00 Build 0)  -->
<!DOCTYPE svg PUBLIC "-//W3C//DTD SVG 1.1//EN" "http://www.w3.org/Graphics/SVG/1.1/DTD/svg11.dtd">
<svg version="1.1" id="Capa_1" xmlns="http://www.w3.org/2000/svg" xmlns:xlink="http://www.w3.org/1999/xlink" x="0px" y="0px"
	 viewBox="0 0 60 60" style="enable-background:new 0 0 60 60;"  fill="#9b60a4" xml:space="preserve">
<g>
	<path d="M59.232,58.291l-5.97-6.244c1.746-1.919,2.82-4.458,2.82-7.251C56.083,38.843,51.24,34,45.287,34
		s-10.796,4.843-10.796,10.796s4.843,10.796,10.796,10.796c2.442,0,4.689-0.824,6.499-2.196l6.001,6.276
		c0.196,0.206,0.459,0.309,0.723,0.309c0.249,0,0.497-0.092,0.691-0.277C59.599,59.323,59.614,58.689,59.232,58.291z M36.491,44.796
		c0-4.85,3.946-8.796,8.796-8.796s8.796,3.946,8.796,8.796s-3.946,8.796-8.796,8.796S36.491,49.646,36.491,44.796z"/>
	<path d="M31.882,48H11.491c-0.552,0-1-0.447-1-1s0.448-1,1-1h20.061c-0.035-0.398-0.061-0.798-0.061-1.204
		c0-1.688,0.32-3.299,0.877-4.796H11.491c-0.552,0-1-0.447-1-1s0.448-1,1-1h21.805c2.375-4.174,6.855-7,11.991-7
		c0.752,0,1.485,0.077,2.204,0.193V14.586L32.905,0H0.491v60h47v-1.601c-0.719,0.116-1.452,0.193-2.204,0.193
		C38.784,58.592,33.332,54.064,31.882,48z M33.491,4l10,10h-10V4z M11.491,14h10c0.552,0,1,0.447,1,1s-0.448,1-1,1h-10
		c-0.552,0-1-0.447-1-1S10.939,14,11.491,14z M11.491,22h25c0.552,0,1,0.447,1,1s-0.448,1-1,1h-25c-0.552,0-1-0.447-1-1
		S10.939,22,11.491,22z M11.491,30h25c0.552,0,1,0.447,1,1s-0.448,1-1,1h-25c-0.552,0-1-0.447-1-1S10.939,30,11.491,30z"/>
</g>
<g>
</g>
<g>
</g>
<g>
</g>
<g>
</g>
<g>
</g>
<g>
</g>
<g>
</g>
<g>
</g>
<g>
</g>
<g>
</g>
<g>
</g>
<g>
</g>
<g>
</g>
<g>
</g>
<g>
</g>
</svg>
